<svg width="417" height="326" viewBox="0 0 417 326" fill="none" xmlns="http://www.w3.org/2000/svg">
<path d="M32 113C11.2 67.8 2 18.8333 0 0H386C383.5 14.5 392.5 66.5 407 107C421.5 147.5 418.5 188.5 400.5 223.5C386.1 251.5 378.833 303.5 377 326H0C0 313.5 3.2 282 16 256C64.5 181.5 45 142 32 113Z" fill="#62B2DF"/>
<path d="M73.708 74.966V91.136C73.708 93.38 73.059 95.129 71.761 96.383C70.463 97.615 68.725 98.231 66.547 98.231C64.347 98.231 62.565 97.593 61.201 96.317C59.859 95.041 59.188 93.259 59.188 90.971H63.808C63.83 91.961 64.061 92.731 64.501 93.281C64.963 93.831 65.623 94.106 66.481 94.106C67.317 94.106 67.955 93.842 68.395 93.314C68.835 92.786 69.055 92.06 69.055 91.136V74.966H73.708ZM77.9093 88.793C77.9093 86.945 78.2723 85.306 78.9983 83.876C79.7463 82.446 80.7473 81.346 82.0013 80.576C83.2773 79.806 84.6963 79.421 86.2583 79.421C87.6223 79.421 88.8103 79.696 89.8223 80.246C90.8563 80.796 91.6813 81.489 92.2973 82.325V79.718H96.9503V98H92.2973V95.327C91.7033 96.185 90.8783 96.9 89.8223 97.472C88.7883 98.022 87.5893 98.297 86.2253 98.297C84.6853 98.297 83.2773 97.901 82.0013 97.109C80.7473 96.317 79.7463 95.206 78.9983 93.776C78.2723 92.324 77.9093 90.663 77.9093 88.793ZM92.2973 88.859C92.2973 87.737 92.0773 86.78 91.6373 85.988C91.1973 85.174 90.6033 84.558 89.8553 84.14C89.1073 83.7 88.3043 83.48 87.4463 83.48C86.5883 83.48 85.7963 83.689 85.0703 84.107C84.3443 84.525 83.7503 85.141 83.2883 85.955C82.8483 86.747 82.6283 87.693 82.6283 88.793C82.6283 89.893 82.8483 90.861 83.2883 91.697C83.7503 92.511 84.3443 93.138 85.0703 93.578C85.8183 94.018 86.6103 94.238 87.4463 94.238C88.3043 94.238 89.1073 94.029 89.8553 93.611C90.6033 93.171 91.1973 92.555 91.6373 91.763C92.0773 90.949 92.2973 89.981 92.2973 88.859ZM111.594 79.454C113.772 79.454 115.532 80.147 116.874 81.533C118.216 82.897 118.887 84.811 118.887 87.275V98H114.267V87.902C114.267 86.45 113.904 85.339 113.178 84.569C112.452 83.777 111.462 83.381 110.208 83.381C108.932 83.381 107.92 83.777 107.172 84.569C106.446 85.339 106.083 86.45 106.083 87.902V98H101.463V79.718H106.083V81.995C106.699 81.203 107.48 80.587 108.426 80.147C109.394 79.685 110.45 79.454 111.594 79.454ZM140.539 79.718V98H135.886V95.69C135.292 96.482 134.511 97.109 133.543 97.571C132.597 98.011 131.563 98.231 130.441 98.231C129.011 98.231 127.746 97.934 126.646 97.34C125.546 96.724 124.677 95.833 124.039 94.667C123.423 93.479 123.115 92.071 123.115 90.443V79.718H127.735V89.783C127.735 91.235 128.098 92.357 128.824 93.149C129.55 93.919 130.54 94.304 131.794 94.304C133.07 94.304 134.071 93.919 134.797 93.149C135.523 92.357 135.886 91.235 135.886 89.783V79.718H140.539ZM143.909 88.793C143.909 86.945 144.272 85.306 144.998 83.876C145.746 82.446 146.747 81.346 148.001 80.576C149.277 79.806 150.696 79.421 152.258 79.421C153.622 79.421 154.81 79.696 155.822 80.246C156.856 80.796 157.681 81.489 158.297 82.325V79.718H162.95V98H158.297V95.327C157.703 96.185 156.878 96.9 155.822 97.472C154.788 98.022 153.589 98.297 152.225 98.297C150.685 98.297 149.277 97.901 148.001 97.109C146.747 96.317 145.746 95.206 144.998 93.776C144.272 92.324 143.909 90.663 143.909 88.793ZM158.297 88.859C158.297 87.737 158.077 86.78 157.637 85.988C157.197 85.174 156.603 84.558 155.855 84.14C155.107 83.7 154.304 83.48 153.446 83.48C152.588 83.48 151.796 83.689 151.07 84.107C150.344 84.525 149.75 85.141 149.288 85.955C148.848 86.747 148.628 87.693 148.628 88.793C148.628 89.893 148.848 90.861 149.288 91.697C149.75 92.511 150.344 93.138 151.07 93.578C151.818 94.018 152.61 94.238 153.446 94.238C154.304 94.238 155.107 94.029 155.855 93.611C156.603 93.171 157.197 92.555 157.637 91.763C158.077 90.949 158.297 89.981 158.297 88.859ZM172.083 82.556C172.677 81.588 173.447 80.829 174.393 80.279C175.361 79.729 176.461 79.454 177.693 79.454V84.305H176.472C175.02 84.305 173.92 84.646 173.172 85.328C172.446 86.01 172.083 87.198 172.083 88.892V98H167.463V79.718H172.083V82.556ZM183.147 77.54C182.333 77.54 181.651 77.287 181.101 76.781C180.573 76.253 180.309 75.604 180.309 74.834C180.309 74.064 180.573 73.426 181.101 72.92C181.651 72.392 182.333 72.128 183.147 72.128C183.961 72.128 184.632 72.392 185.16 72.92C185.71 73.426 185.985 74.064 185.985 74.834C185.985 75.604 185.71 76.253 185.16 76.781C184.632 77.287 183.961 77.54 183.147 77.54ZM185.424 79.718V98H180.804V79.718H185.424ZM198.107 98.297C196.347 98.297 194.763 97.912 193.355 97.142C191.947 96.35 190.836 95.239 190.022 93.809C189.23 92.379 188.834 90.729 188.834 88.859C188.834 86.989 189.241 85.339 190.055 83.909C190.891 82.479 192.024 81.379 193.454 80.609C194.884 79.817 196.479 79.421 198.239 79.421C199.999 79.421 201.594 79.817 203.024 80.609C204.454 81.379 205.576 82.479 206.39 83.909C207.226 85.339 207.644 86.989 207.644 88.859C207.644 90.729 207.215 92.379 206.357 93.809C205.521 95.239 204.377 96.35 202.925 97.142C201.495 97.912 199.889 98.297 198.107 98.297ZM198.107 94.271C198.943 94.271 199.724 94.073 200.45 93.677C201.198 93.259 201.792 92.643 202.232 91.829C202.672 91.015 202.892 90.025 202.892 88.859C202.892 87.121 202.43 85.79 201.506 84.866C200.604 83.92 199.493 83.447 198.173 83.447C196.853 83.447 195.742 83.92 194.84 84.866C193.96 85.79 193.52 87.121 193.52 88.859C193.52 90.597 193.949 91.939 194.807 92.885C195.687 93.809 196.787 94.271 198.107 94.271ZM74.401 135.611H65.227L63.709 140H58.858L67.141 116.933H72.52L80.803 140H75.919L74.401 135.611ZM73.147 131.915L69.814 122.279L66.481 131.915H73.147ZM88.5191 115.58V140H83.8991V115.58H88.5191ZM110.079 130.463C110.079 131.123 110.035 131.717 109.947 132.245H96.5816C96.6916 133.565 97.1536 134.599 97.9676 135.347C98.7816 136.095 99.7826 136.469 100.971 136.469C102.687 136.469 103.908 135.732 104.634 134.258H109.617C109.089 136.018 108.077 137.47 106.581 138.614C105.085 139.736 103.248 140.297 101.07 140.297C99.3096 140.297 97.7256 139.912 96.3176 139.142C94.9316 138.35 93.8426 137.239 93.0506 135.809C92.2806 134.379 91.8956 132.729 91.8956 130.859C91.8956 128.967 92.2806 127.306 93.0506 125.876C93.8206 124.446 94.8986 123.346 96.2846 122.576C97.6706 121.806 99.2656 121.421 101.07 121.421C102.808 121.421 104.359 121.795 105.723 122.543C107.109 123.291 108.176 124.358 108.924 125.744C109.694 127.108 110.079 128.681 110.079 130.463ZM105.294 129.143C105.272 127.955 104.843 127.009 104.007 126.305C103.171 125.579 102.148 125.216 100.938 125.216C99.7936 125.216 98.8256 125.568 98.0336 126.272C97.2636 126.954 96.7906 127.911 96.6146 129.143H105.294ZM123.549 140L119.787 134.324L116.454 140H111.504L117.477 130.826L111.438 121.718H116.652L120.381 127.361L123.747 121.718H128.697L122.691 130.826L128.763 140H123.549ZM130.084 130.793C130.084 128.945 130.447 127.306 131.173 125.876C131.921 124.446 132.922 123.346 134.176 122.576C135.452 121.806 136.871 121.421 138.433 121.421C139.797 121.421 140.985 121.696 141.997 122.246C143.031 122.796 143.856 123.489 144.472 124.325V121.718H149.125V140H144.472V137.327C143.878 138.185 143.053 138.9 141.997 139.472C140.963 140.022 139.764 140.297 138.4 140.297C136.86 140.297 135.452 139.901 134.176 139.109C132.922 138.317 131.921 137.206 131.173 135.776C130.447 134.324 130.084 132.663 130.084 130.793ZM144.472 130.859C144.472 129.737 144.252 128.78 143.812 127.988C143.372 127.174 142.778 126.558 142.03 126.14C141.282 125.7 140.479 125.48 139.621 125.48C138.763 125.48 137.971 125.689 137.245 126.107C136.519 126.525 135.925 127.141 135.463 127.955C135.023 128.747 134.803 129.693 134.803 130.793C134.803 131.893 135.023 132.861 135.463 133.697C135.925 134.511 136.519 135.138 137.245 135.578C137.993 136.018 138.785 136.238 139.621 136.238C140.479 136.238 141.282 136.029 142.03 135.611C142.778 135.171 143.372 134.555 143.812 133.763C144.252 132.949 144.472 131.981 144.472 130.859ZM163.768 121.454C165.946 121.454 167.706 122.147 169.048 123.533C170.39 124.897 171.061 126.811 171.061 129.275V140H166.441V129.902C166.441 128.45 166.078 127.339 165.352 126.569C164.626 125.777 163.636 125.381 162.382 125.381C161.106 125.381 160.094 125.777 159.346 126.569C158.62 127.339 158.257 128.45 158.257 129.902V140H153.637V121.718H158.257V123.995C158.873 123.203 159.654 122.587 160.6 122.147C161.568 121.685 162.624 121.454 163.768 121.454ZM174.267 130.793C174.267 128.945 174.63 127.306 175.356 125.876C176.104 124.446 177.116 123.346 178.392 122.576C179.668 121.806 181.087 121.421 182.649 121.421C183.837 121.421 184.97 121.685 186.048 122.213C187.126 122.719 187.984 123.401 188.622 124.259V115.58H193.308V140H188.622V137.294C188.05 138.196 187.247 138.922 186.213 139.472C185.179 140.022 183.98 140.297 182.616 140.297C181.076 140.297 179.668 139.901 178.392 139.109C177.116 138.317 176.104 137.206 175.356 135.776C174.63 134.324 174.267 132.663 174.267 130.793ZM188.655 130.859C188.655 129.737 188.435 128.78 187.995 127.988C187.555 127.174 186.961 126.558 186.213 126.14C185.465 125.7 184.662 125.48 183.804 125.48C182.946 125.48 182.154 125.689 181.428 126.107C180.702 126.525 180.108 127.141 179.646 127.955C179.206 128.747 178.986 129.693 178.986 130.793C178.986 131.893 179.206 132.861 179.646 133.697C180.108 134.511 180.702 135.138 181.428 135.578C182.176 136.018 182.968 136.238 183.804 136.238C184.662 136.238 185.465 136.029 186.213 135.611C186.961 135.171 187.555 134.555 187.995 133.763C188.435 132.949 188.655 131.981 188.655 130.859ZM214.815 130.463C214.815 131.123 214.771 131.717 214.683 132.245H201.318C201.428 133.565 201.89 134.599 202.704 135.347C203.518 136.095 204.519 136.469 205.707 136.469C207.423 136.469 208.644 135.732 209.37 134.258H214.353C213.825 136.018 212.813 137.47 211.317 138.614C209.821 139.736 207.984 140.297 205.806 140.297C204.046 140.297 202.462 139.912 201.054 139.142C199.668 138.35 198.579 137.239 197.787 135.809C197.017 134.379 196.632 132.729 196.632 130.859C196.632 128.967 197.017 127.306 197.787 125.876C198.557 124.446 199.635 123.346 201.021 122.576C202.407 121.806 204.002 121.421 205.806 121.421C207.544 121.421 209.095 121.795 210.459 122.543C211.845 123.291 212.912 124.358 213.66 125.744C214.43 127.108 214.815 128.681 214.815 130.463ZM210.03 129.143C210.008 127.955 209.579 127.009 208.743 126.305C207.907 125.579 206.884 125.216 205.674 125.216C204.53 125.216 203.562 125.568 202.77 126.272C202 126.954 201.527 127.911 201.351 129.143H210.03ZM222.807 124.556C223.401 123.588 224.171 122.829 225.117 122.279C226.085 121.729 227.185 121.454 228.417 121.454V126.305H227.196C225.744 126.305 224.644 126.646 223.896 127.328C223.17 128.01 222.807 129.198 222.807 130.892V140H218.187V121.718H222.807V124.556Z" fill="white"/>
<path d="M62.402 190.146V193.818H66.722V195.492H62.402V199.326H67.262V201H60.35V188.472H67.262V190.146H62.402ZM71.8415 187.68V201H69.7895V187.68H71.8415ZM83.6255 195.798C83.6255 196.17 83.6015 196.506 83.5535 196.806H75.9755C76.0355 197.598 76.3295 198.234 76.8575 198.714C77.3855 199.194 78.0335 199.434 78.8015 199.434C79.9055 199.434 80.6855 198.972 81.1415 198.048H83.3555C83.0555 198.96 82.5095 199.71 81.7175 200.298C80.9375 200.874 79.9655 201.162 78.8015 201.162C77.8535 201.162 77.0015 200.952 76.2455 200.532C75.5015 200.1 74.9135 199.5 74.4815 198.732C74.0615 197.952 73.8515 197.052 73.8515 196.032C73.8515 195.012 74.0555 194.118 74.4635 193.35C74.8835 192.57 75.4655 191.97 76.2095 191.55C76.9655 191.13 77.8295 190.92 78.8015 190.92C79.7375 190.92 80.5715 191.124 81.3035 191.532C82.0355 191.94 82.6055 192.516 83.0135 193.26C83.4215 193.992 83.6255 194.838 83.6255 195.798ZM81.4835 195.15C81.4715 194.394 81.2015 193.788 80.6735 193.332C80.1455 192.876 79.4915 192.648 78.7115 192.648C78.0035 192.648 77.3975 192.876 76.8935 193.332C76.3895 193.776 76.0895 194.382 75.9935 195.15H81.4835ZM84.9609 196.032C84.9609 195.012 85.1649 194.118 85.5729 193.35C85.9929 192.57 86.5689 191.97 87.3009 191.55C88.0329 191.13 88.8729 190.92 89.8209 190.92C91.0209 190.92 92.0109 191.208 92.7909 191.784C93.5829 192.348 94.1169 193.158 94.3929 194.214H92.1789C91.9989 193.722 91.7109 193.338 91.3149 193.062C90.9189 192.786 90.4209 192.648 89.8209 192.648C88.9809 192.648 88.3089 192.948 87.8049 193.548C87.3129 194.136 87.0669 194.964 87.0669 196.032C87.0669 197.1 87.3129 197.934 87.8049 198.534C88.3089 199.134 88.9809 199.434 89.8209 199.434C91.0089 199.434 91.7949 198.912 92.1789 197.868H94.3929C94.1049 198.876 93.5649 199.68 92.7729 200.28C91.9809 200.868 90.9969 201.162 89.8209 201.162C88.8729 201.162 88.0329 200.952 87.3009 200.532C86.5689 200.1 85.9929 199.5 85.5729 198.732C85.1649 197.952 84.9609 197.052 84.9609 196.032ZM98.8319 192.756V198.246C98.8319 198.618 98.9159 198.888 99.0839 199.056C99.2639 199.212 99.5639 199.29 99.9839 199.29H101.244V201H99.6239C98.6999 201 97.9919 200.784 97.4999 200.352C97.0079 199.92 96.7619 199.218 96.7619 198.246V192.756H95.5919V191.082H96.7619V188.616H98.8319V191.082H101.244V192.756H98.8319ZM105.187 192.522C105.487 192.018 105.883 191.628 106.375 191.352C106.879 191.064 107.473 190.92 108.157 190.92V193.044H107.635C106.831 193.044 106.219 193.248 105.799 193.656C105.391 194.064 105.187 194.772 105.187 195.78V201H103.135V191.082H105.187V192.522ZM111.087 189.768C110.715 189.768 110.403 189.642 110.151 189.39C109.899 189.138 109.773 188.826 109.773 188.454C109.773 188.082 109.899 187.77 110.151 187.518C110.403 187.266 110.715 187.14 111.087 187.14C111.447 187.14 111.753 187.266 112.005 187.518C112.257 187.77 112.383 188.082 112.383 188.454C112.383 188.826 112.257 189.138 112.005 189.39C111.753 189.642 111.447 189.768 111.087 189.768ZM112.095 191.082V201H110.043V191.082H112.095ZM114.105 196.032C114.105 195.012 114.309 194.118 114.717 193.35C115.137 192.57 115.713 191.97 116.445 191.55C117.177 191.13 118.017 190.92 118.965 190.92C120.165 190.92 121.155 191.208 121.935 191.784C122.727 192.348 123.261 193.158 123.537 194.214H121.323C121.143 193.722 120.855 193.338 120.459 193.062C120.063 192.786 119.565 192.648 118.965 192.648C118.125 192.648 117.453 192.948 116.949 193.548C116.457 194.136 116.211 194.964 116.211 196.032C116.211 197.1 116.457 197.934 116.949 198.534C117.453 199.134 118.125 199.434 118.965 199.434C120.153 199.434 120.939 198.912 121.323 197.868H123.537C123.249 198.876 122.709 199.68 121.917 200.28C121.125 200.868 120.141 201.162 118.965 201.162C118.017 201.162 117.177 200.952 116.445 200.532C115.713 200.1 115.137 199.5 114.717 198.732C114.309 197.952 114.105 197.052 114.105 196.032ZM124.898 195.996C124.898 195 125.102 194.118 125.51 193.35C125.93 192.582 126.494 191.988 127.202 191.568C127.922 191.136 128.714 190.92 129.578 190.92C130.358 190.92 131.036 191.076 131.612 191.388C132.2 191.688 132.668 192.066 133.016 192.522V191.082H135.086V201H133.016V199.524C132.668 199.992 132.194 200.382 131.594 200.694C130.994 201.006 130.31 201.162 129.542 201.162C128.69 201.162 127.91 200.946 127.202 200.514C126.494 200.07 125.93 199.458 125.51 198.678C125.102 197.886 124.898 196.992 124.898 195.996ZM133.016 196.032C133.016 195.348 132.872 194.754 132.584 194.25C132.308 193.746 131.942 193.362 131.486 193.098C131.03 192.834 130.538 192.702 130.01 192.702C129.482 192.702 128.99 192.834 128.534 193.098C128.078 193.35 127.706 193.728 127.418 194.232C127.142 194.724 127.004 195.312 127.004 195.996C127.004 196.68 127.142 197.28 127.418 197.796C127.706 198.312 128.078 198.708 128.534 198.984C129.002 199.248 129.494 199.38 130.01 199.38C130.538 199.38 131.03 199.248 131.486 198.984C131.942 198.72 132.308 198.336 132.584 197.832C132.872 197.316 133.016 196.716 133.016 196.032ZM139.834 187.68V201H137.782V187.68H139.834ZM69.44 222.798C69.44 223.17 69.416 223.506 69.368 223.806H61.79C61.85 224.598 62.144 225.234 62.672 225.714C63.2 226.194 63.848 226.434 64.616 226.434C65.72 226.434 66.5 225.972 66.956 225.048H69.17C68.87 225.96 68.324 226.71 67.532 227.298C66.752 227.874 65.78 228.162 64.616 228.162C63.668 228.162 62.816 227.952 62.06 227.532C61.316 227.1 60.728 226.5 60.296 225.732C59.876 224.952 59.666 224.052 59.666 223.032C59.666 222.012 59.87 221.118 60.278 220.35C60.698 219.57 61.28 218.97 62.024 218.55C62.78 218.13 63.644 217.92 64.616 217.92C65.552 217.92 66.386 218.124 67.118 218.532C67.85 218.94 68.42 219.516 68.828 220.26C69.236 220.992 69.44 221.838 69.44 222.798ZM67.298 222.15C67.286 221.394 67.016 220.788 66.488 220.332C65.96 219.876 65.306 219.648 64.526 219.648C63.818 219.648 63.212 219.876 62.708 220.332C62.204 220.776 61.904 221.382 61.808 222.15H67.298ZM76.4634 217.92C77.2434 217.92 77.9394 218.082 78.5514 218.406C79.1754 218.73 79.6614 219.21 80.0094 219.846C80.3574 220.482 80.5314 221.25 80.5314 222.15V228H78.4974V222.456C78.4974 221.568 78.2754 220.89 77.8314 220.422C77.3874 219.942 76.7814 219.702 76.0134 219.702C75.2454 219.702 74.6334 219.942 74.1774 220.422C73.7334 220.89 73.5114 221.568 73.5114 222.456V228H71.4594V218.082H73.5114V219.216C73.8474 218.808 74.2734 218.49 74.7894 218.262C75.3174 218.034 75.8754 217.92 76.4634 217.92ZM87.1448 217.92C87.9128 217.92 88.5908 218.076 89.1788 218.388C89.7788 218.688 90.2468 219.066 90.5828 219.522V218.082H92.6528V228.162C92.6528 229.074 92.4608 229.884 92.0768 230.592C91.6928 231.312 91.1348 231.876 90.4028 232.284C89.6828 232.692 88.8188 232.896 87.8108 232.896C86.4668 232.896 85.3508 232.578 84.4628 231.942C83.5748 231.318 83.0708 230.466 82.9508 229.386H84.9848C85.1408 229.902 85.4708 230.316 85.9748 230.628C86.4908 230.952 87.1028 231.114 87.8108 231.114C88.6388 231.114 89.3048 230.862 89.8088 230.358C90.3248 229.854 90.5828 229.122 90.5828 228.162V226.506C90.2348 226.974 89.7608 227.37 89.1608 227.694C88.5728 228.006 87.9008 228.162 87.1448 228.162C86.2808 228.162 85.4888 227.946 84.7688 227.514C84.0608 227.07 83.4968 226.458 83.0768 225.678C82.6688 224.886 82.4648 223.992 82.4648 222.996C82.4648 222 82.6688 221.118 83.0768 220.35C83.4968 219.582 84.0608 218.988 84.7688 218.568C85.4888 218.136 86.2808 217.92 87.1448 217.92ZM90.5828 223.032C90.5828 222.348 90.4388 221.754 90.1508 221.25C89.8748 220.746 89.5088 220.362 89.0528 220.098C88.5968 219.834 88.1048 219.702 87.5768 219.702C87.0488 219.702 86.5568 219.834 86.1008 220.098C85.6448 220.35 85.2728 220.728 84.9848 221.232C84.7088 221.724 84.5708 222.312 84.5708 222.996C84.5708 223.68 84.7088 224.28 84.9848 224.796C85.2728 225.312 85.6448 225.708 86.1008 225.984C86.5688 226.248 87.0608 226.38 87.5768 226.38C88.1048 226.38 88.5968 226.248 89.0528 225.984C89.5088 225.72 89.8748 225.336 90.1508 224.832C90.4388 224.316 90.5828 223.716 90.5828 223.032ZM96.392 216.768C96.02 216.768 95.708 216.642 95.456 216.39C95.204 216.138 95.078 215.826 95.078 215.454C95.078 215.082 95.204 214.77 95.456 214.518C95.708 214.266 96.02 214.14 96.392 214.14C96.752 214.14 97.058 214.266 97.31 214.518C97.562 214.77 97.688 215.082 97.688 215.454C97.688 215.826 97.562 216.138 97.31 216.39C97.058 216.642 96.752 216.768 96.392 216.768ZM97.4 218.082V228H95.348V218.082H97.4ZM105.098 217.92C105.878 217.92 106.574 218.082 107.186 218.406C107.81 218.73 108.296 219.21 108.644 219.846C108.992 220.482 109.166 221.25 109.166 222.15V228H107.132V222.456C107.132 221.568 106.91 220.89 106.466 220.422C106.022 219.942 105.416 219.702 104.648 219.702C103.88 219.702 103.268 219.942 102.812 220.422C102.368 220.89 102.146 221.568 102.146 222.456V228H100.094V218.082H102.146V219.216C102.482 218.808 102.908 218.49 103.424 218.262C103.952 218.034 104.51 217.92 105.098 217.92ZM120.874 222.798C120.874 223.17 120.85 223.506 120.802 223.806H113.224C113.284 224.598 113.578 225.234 114.106 225.714C114.634 226.194 115.282 226.434 116.05 226.434C117.154 226.434 117.934 225.972 118.39 225.048H120.604C120.304 225.96 119.758 226.71 118.966 227.298C118.186 227.874 117.214 228.162 116.05 228.162C115.102 228.162 114.25 227.952 113.494 227.532C112.75 227.1 112.162 226.5 111.73 225.732C111.31 224.952 111.1 224.052 111.1 223.032C111.1 222.012 111.304 221.118 111.712 220.35C112.132 219.57 112.714 218.97 113.458 218.55C114.214 218.13 115.078 217.92 116.05 217.92C116.986 217.92 117.82 218.124 118.552 218.532C119.284 218.94 119.854 219.516 120.262 220.26C120.67 220.992 120.874 221.838 120.874 222.798ZM118.732 222.15C118.72 221.394 118.45 220.788 117.922 220.332C117.394 219.876 116.74 219.648 115.96 219.648C115.252 219.648 114.646 219.876 114.142 220.332C113.638 220.776 113.338 221.382 113.242 222.15H118.732ZM131.983 222.798C131.983 223.17 131.959 223.506 131.911 223.806H124.333C124.393 224.598 124.687 225.234 125.215 225.714C125.743 226.194 126.391 226.434 127.159 226.434C128.263 226.434 129.043 225.972 129.499 225.048H131.713C131.413 225.96 130.867 226.71 130.075 227.298C129.295 227.874 128.323 228.162 127.159 228.162C126.211 228.162 125.359 227.952 124.603 227.532C123.859 227.1 123.271 226.5 122.839 225.732C122.419 224.952 122.209 224.052 122.209 223.032C122.209 222.012 122.413 221.118 122.821 220.35C123.241 219.57 123.823 218.97 124.567 218.55C125.323 218.13 126.187 217.92 127.159 217.92C128.095 217.92 128.929 218.124 129.661 218.532C130.393 218.94 130.963 219.516 131.371 220.26C131.779 220.992 131.983 221.838 131.983 222.798ZM129.841 222.15C129.829 221.394 129.559 220.788 129.031 220.332C128.503 219.876 127.849 219.648 127.069 219.648C126.361 219.648 125.755 219.876 125.251 220.332C124.747 220.776 124.447 221.382 124.351 222.15H129.841ZM136.054 219.522C136.354 219.018 136.75 218.628 137.242 218.352C137.746 218.064 138.34 217.92 139.024 217.92V220.044H138.502C137.698 220.044 137.086 220.248 136.666 220.656C136.258 221.064 136.054 221.772 136.054 222.78V228H134.002V218.082H136.054V219.522Z" fill="white"/>
</svg>
